<svg xmlns="http://www.w3.org/2000/svg" viewBox="0 0 466.7 466.53"><defs><style>.cls-1{fill:#fff;}</style></defs><title>Asset 2checktypo-white-logo</title><g id="Layer_2" data-name="Layer 2"><g id="Layer_1-2" data-name="Layer 1"><g id="cO14wk.tif"><path class="cls-1" d="M230.3,466.53c-19-.22-37.91-8.67-53.73-24.74-22.6-23-45.48-45.62-68.27-68.38Q74.66,339.81,41,306.27c-6.83-6.82-13.66-13.64-20.35-20.59A71.08,71.08,0,0,1,2.82,253.49c-6.58-25.7-1.69-49.15,15.11-69.66,6.31-7.69,13.83-14.4,20.88-21.47q31-31,62-62Q139.39,61.83,178,23.29C194.56,6.81,214.57-1.17,237.87.14,257,1.22,273.81,8.46,287.5,22.06Q322.42,56.77,357,91.79c3,3,6.15,6.21,8.24,9.88a23.55,23.55,0,0,1-3.56,27.38c-11.66,12-23.56,23.8-35.39,35.66q-37.59,37.68-75.21,75.34a24.36,24.36,0,0,1-34.79.27q-15.18-14.83-30.07-29.95c-8.37-8.55-18.3-12.4-30.23-11.12-13,1.39-25.54,12.61-28.48,25.39s.26,23.91,9.5,33.19Q169.1,290,201.29,322.1c3.88,3.87,7.63,8,11.94,11.32,13,10.1,32.26,8.81,43.94-2.79,15.3-15.18,30.49-30.48,45.74-45.7q31.2-31.14,62.43-62.23,21.06-21,42-42c5-5,10.51-8.71,17.77-9.12,8.51-.49,15.4,2.86,21,9.11,14.62,16.38,21.78,35.53,20.4,57.48-1.29,20.4-9.9,37.46-24.43,51.86-30.94,30.67-61.64,61.57-92.44,92.38-20.78,20.79-41.47,41.67-62.37,62.34C273,458.88,254,466.41,230.3,466.53Z"/></g></g></g></svg>